<svg xmlns="http://www.w3.org/2000/svg" viewBox="-412 261 135 40"><g fill="#FFF"><path d="M-351.5 284.4c-.5 0-1 .2-1.4.5-.4.3-.7.8-.8 1.4-.1.3-.1.5-.1.6v1.6c0 .7.2 1.3.6 1.8.4.5 1 .7 1.7.7.8 0 1.4-.3 1.9-.9.4-.6.7-1.4.7-2.4 0-.9-.2-1.7-.6-2.3-.6-.7-1.2-1-2-1zM-340.5 284.4c-.5 0-1 .2-1.4.5-.4.3-.7.8-.8 1.4-.1.3-.1.5-.1.6v1.6c0 .7.2 1.3.6 1.8.4.5 1 .7 1.7.7.8 0 1.4-.3 1.9-.9.4-.6.7-1.4.7-2.4 0-.9-.2-1.7-.6-2.3-.6-.7-1.2-1-2-1zM-335.5 270.3c-.3 0-.6.2-.8.5-.2.3-.3.7-.3 1.3 0 .5.1.9.3 1.2s.5.5.8.5c.7 0 1.1-.6 1.1-1.7 0-.5-.1-.9-.3-1.2-.2-.4-.4-.6-.8-.6zM-330.4 273.7c.3 0 .6-.1.9-.4v-1h-.3c-.8 0-1.3.3-1.3.8 0 .2.1.3.2.5.2 0 .4.1.5.1zM-363.6 281c-.2.6-.4 1.4-.7 2.5l-1.1 3.5h3.6l-1.1-3.5c-.1-.4-.3-1.2-.7-2.5zM-291.5 270.3c-.5 0-.9.4-.9 1.2h1.7c0-.8-.3-1.2-.8-1.2zM-362.5 271.1c0-.6-.1-1.1-.4-1.6-.2-.3-.4-.5-.7-.6s-.7-.2-1.2-.2h-.8v4.7h1c.7 0 1.2-.2 1.6-.6.3-.3.5-.9.5-1.7zM-357.8 270.3c-.3 0-.6.2-.8.5-.2.3-.3.7-.3 1.3 0 .5.1.9.3 1.2s.5.5.8.5c.7 0 1.1-.6 1.1-1.7 0-.5-.1-.9-.3-1.2-.2-.4-.5-.6-.8-.6zM-323.5 270.9c-.3-.4-.6-.5-1-.5-.3 0-.6.2-.8.5s-.3.7-.3 1.2c0 1 .3 1.5.9 1.5.4 0 .8-.2 1.1-.7v-2z"/><path d="M-281.8 261h-125.5c-2.6 0-4.7 2.1-4.7 4.7v30.5c0 2.6 2.1 4.7 4.7 4.7h125.5c2.6 0 4.8-2.1 4.8-4.7v-30.5c0-2.6-2.2-4.7-4.8-4.7zm-11.4 9.2c.4-.5 1-.7 1.7-.7s1.2.2 1.5.7.5 1.1.5 2.1h-3c.1.9.6 1.4 1.5 1.4.4 0 .9-.1 1.5-.3v.9c-.6.2-1.2.3-1.8.3-.8 0-1.4-.2-1.9-.7-.5-.5-.7-1.1-.7-1.9.1-.8.3-1.4.7-1.8zm-10.2-.6h.5v-.8l1.3-.1v1h1v.8h-1v2.4c0 .6.2.9.7.9.1 0 .2 0 .4-.1v.8c-.3.1-.6.1-.7.1-1.1 0-1.7-.5-1.7-1.6v-2.5h-.5v-.9zm-8.4 0h1.3v.9c.4-.7 1-1 1.6-1 .4 0 .8.1 1 .4.2.3.4.6.4 1.1v3.4h-1.3v-3.1c0-.5-.2-.8-.5-.8-.4 0-.8.3-1.2.9v3h-1.3v-4.8zm-28.7-2.1h1.3v6.9h-1.3v-6.9zm-12.9 2.1l.9 3.4 1-3.4h1.1l.9 3.4 1-3.4h.9l-1.4 4.8h-1.2l-.9-3.3-1 3.3h-1.2l-1.3-4.8h1.2zm-13.6-1.7h2.8c1 0 1.8.3 2.3.8.5.5.8 1.3.8 2.3 0 1.1-.3 1.9-.9 2.5-.6.6-1.4.9-2.4.9h-2.7v-6.5zm-20.5 1.3c.9-1.1 2.5-1.9 3.8-1.9.2 1.5-.4 3-1.3 4.1-.9 1.1-2.4 1.9-3.8 1.8-.2-1.6.5-3.1 1.3-4zm7.3 20.4c-1 1.6-2.1 3.1-3.9 3.1-1.7 0-2.3-1-4.2-1-2 0-2.6 1-4.2 1-1.7.1-2.9-1.7-4-3.2-2.2-3.2-3.9-8.9-1.6-12.9 1.1-1.9 3.1-3.2 5.2-3.2 1.7 0 3.2 1.1 4.2 1.1s2.9-1.4 4.9-1.2c.8 0 3.2.3 4.7 2.5-.1.1-2.8 1.6-2.8 4.9 0 3.9 3.4 5.1 3.4 5.2 0 .1-.5 1.9-1.7 3.7zm20.1 2.9l-1.2-3.9h-4.3l-1.2 3.9h-2.2l4.3-13.3h2.6l4.3 13.3h-2.3zm.4-18.6c-.4-.5-.7-1.1-.7-1.8 0-.8.2-1.4.7-1.8s1.1-.7 1.8-.7c.8 0 1.4.2 1.8.7s.7 1.1.7 1.8c0 .8-.2 1.4-.7 1.9s-1.1.7-1.9.7c-.6-.2-1.2-.4-1.7-.8zm11.5 17.6c-.8.8-1.8 1.3-2.9 1.3-1.3 0-2.2-.5-2.7-1.4v5.1h-2.1v-10.3c0-1 0-2.1-.1-3.2h1.9l.1 1.5c.7-1.1 1.8-1.7 3.2-1.7 1.1 0 2.1.4 2.8 1.3.8.9 1.1 2.1 1.1 3.5 0 1.6-.4 2.9-1.3 3.9zm3.1-17.1h-1.3v-4.8h1.3v.9c.4-.7 1-1 1.6-1 .4 0 .8.1 1 .4.2.3.4.6.4 1.1v3.4h-1.3v-3.1c0-.5-.2-.8-.5-.8-.4 0-.8.3-1.2.9v3zm8 17.1c-.8.8-1.8 1.3-2.9 1.3-1.3 0-2.2-.5-2.7-1.4v5.1h-2.1v-10.3c0-1 0-2.1-.1-3.2h1.9l.1 1.5c.7-1.1 1.8-1.7 3.2-1.7 1.1 0 2.1.4 2.8 1.3.8.9 1.1 2.1 1.1 3.5 0 1.6-.5 2.9-1.3 3.9zm3.4-17.6c-.4.4-1.1.7-1.9.7-.8 0-1.4-.2-1.8-.7-.4-.5-.7-1.1-.7-1.8 0-.8.2-1.4.7-1.8.4-.5 1.1-.7 1.8-.7.8 0 1.4.2 1.8.7.4.5.7 1.1.7 1.8.1.7-.1 1.3-.6 1.8zm1.5-.7c0-.5.2-.9.6-1.2.4-.3 1-.4 1.8-.4h.3v-.6c0-.5-.3-.8-.9-.8-.5 0-1 .1-1.5.4v-.9c.6-.2 1.2-.3 1.7-.3 1.3 0 1.9.5 1.9 1.5v2.1c0 .4.1.6.4.6h.2v.7c-.3.1-.5.1-.7.1-.5 0-.9-.2-1-.6h-.1c-.4.4-.9.6-1.4.6-.4 0-.8-.1-1-.4s-.3-.4-.3-.8zm7.5 18.3c-.9.8-2.1 1.2-3.6 1.2-1.4 0-2.6-.3-3.4-.8l.5-1.8c.9.6 2 .9 3.1.9.8 0 1.4-.2 1.9-.5.4-.4.7-.8.7-1.5 0-.5-.2-1-.6-1.4-.4-.4-1-.7-1.8-1-2.3-.9-3.5-2.1-3.5-3.8 0-1.1.4-2 1.2-2.7.8-.7 1.9-1 3.3-1 1.2 0 2.2.2 3 .6l-.5 1.7c-.8-.4-1.6-.6-2.5-.6-.8 0-1.3.2-1.8.6-.4.3-.5.7-.5 1.2s.2 1 .6 1.3c.4.3 1 .7 1.9 1 1.1.5 2 1 2.5 1.6.5.6.8 1.4.8 2.3-.1 1.1-.5 2-1.3 2.7zm-.3-17c-.6 0-1-.2-1.4-.6s-.5-1-.5-1.8.2-1.5.6-1.9c.4-.5.9-.7 1.5-.7.5 0 1 .2 1.4.6v-2.6h1.3v6.9h-1.3v-.9c-.4.7-.9 1-1.6 1zm8.6 10h-2.3v4.7c0 1.2.4 1.8 1.2 1.8.4 0 .7 0 .9-.1l.1 1.6c-.4.2-1 .2-1.7.2-.8 0-1.5-.3-2-.8s-.7-1.4-.7-2.6v-4.8h-1.4v-1.6h1.4v-1.8l2.1-.6v2.4h2.4v1.6zm-.9-10.6c-.4-.5-.7-1.1-.7-1.8 0-.8.2-1.4.7-1.8.4-.5 1.1-.7 1.8-.7.8 0 1.4.2 1.8.7.4.5.7 1.1.7 1.8 0 .8-.2 1.4-.7 1.9s-1.1.7-1.9.7c-.7-.2-1.3-.4-1.7-.8zm10.2 17.4c-.9 1-2.1 1.5-3.5 1.5s-2.5-.5-3.4-1.4-1.3-2.1-1.3-3.5c0-1.5.4-2.7 1.3-3.7.9-.9 2-1.4 3.5-1.4 1.4 0 2.5.5 3.4 1.4.8.9 1.2 2.1 1.2 3.5.1 1.4-.4 2.6-1.2 3.6zm8.2-6.5c-.2 0-.4-.1-.7-.1-.8 0-1.3.3-1.7.8-.4.5-.5 1.1-.5 1.9v5h-2.1v-6.6c0-1.1 0-2.1-.1-3h1.9l.1 1.8h.1c.2-.6.6-1.1 1.1-1.5.5-.3 1-.5 1.5-.5h.5v2.2zm.9-10.4h-1.3v-6.9h1.3v3c.4-.7 1-1 1.6-1 .4 0 .8.1 1 .4.2.3.4.6.4 1.1v3.4h-1.3v-3.1c0-.5-.2-.8-.5-.8-.4 0-.8.3-1.2.9v3zm8.6 13.8h-6.4c0 .9.3 1.7.9 2.2.5.4 1.2.7 2.1.7.9 0 1.8-.2 2.6-.5l.3 1.5c-.9.4-2 .6-3.2.6-1.5 0-2.7-.4-3.5-1.3-.8-.9-1.3-2-1.3-3.5 0-1.4.4-2.7 1.2-3.6.8-1 1.9-1.5 3.4-1.5 1.4 0 2.4.5 3.1 1.5.6.8.8 1.8.8 3v.9z"/><path d="M-310.5 284.3c-.9 0-1.5.4-2 1.1-.4.6-.6 1.4-.6 2.3 0 .9.2 1.6.6 2.3.5.8 1.1 1.1 1.9 1.1.8 0 1.5-.4 1.9-1.2.4-.6.6-1.4.6-2.3 0-.9-.2-1.6-.6-2.3-.4-.6-1-1-1.8-1zM-315.5 270.3c-.3 0-.6.2-.8.5-.2.3-.3.7-.3 1.3 0 .5.1.9.3 1.2s.5.5.8.5c.7 0 1.1-.6 1.1-1.7 0-.5-.1-.9-.3-1.2-.2-.4-.5-.6-.8-.6zM-291.8 285.1c-.4-.6-.9-.9-1.7-.9-.7 0-1.3.3-1.7.9-.4.5-.6 1-.6 1.7h4.4c0-.7-.1-1.3-.4-1.7z"/></g></svg>